<?xml version="1.0" encoding="UTF-8" standalone="no"?>
<svg
   id="Ebene_1"
   data-name="Ebene 1"
   viewBox="0 0 778.71002 79.750809"
   version="1.1"
   sodipodi:docname="PNH_Wordmark_small.svg"
   width="778.71002"
   height="79.750809"
   inkscape:version="1.1.2 (0a00cf5339, 2022-02-04, custom)"
   xmlns:inkscape="http://www.inkscape.org/namespaces/inkscape"
   xmlns:sodipodi="http://sodipodi.sourceforge.net/DTD/sodipodi-0.dtd"
   xmlns:xlink="http://www.w3.org/1999/xlink"
   xmlns="http://www.w3.org/2000/svg"
   xmlns:svg="http://www.w3.org/2000/svg">
  <sodipodi:namedview
     id="namedview137"
     pagecolor="#ffffff"
     bordercolor="#999999"
     borderopacity="1"
     inkscape:pageshadow="0"
     inkscape:pageopacity="0"
     inkscape:pagecheckerboard="0"
     showgrid="false"
     fit-margin-top="0"
     fit-margin-left="0"
     fit-margin-right="0"
     fit-margin-bottom="0"
     inkscape:zoom="0.4365"
     inkscape:cx="500.57274"
     inkscape:cy="-48.109966"
     inkscape:window-width="2454"
     inkscape:window-height="1311"
     inkscape:window-x="772"
     inkscape:window-y="712"
     inkscape:window-maximized="0"
     inkscape:current-layer="Ebene_1" />
  <defs
     id="defs20">
    <style
       id="style2">.cls-1{fill:#fff;}.cls-2{fill:url(#spacelord_zu_süßigkeit);}.cls-3{fill:url(#spacelord_zu_süßigkeit-2);}.cls-4{fill:#0bff09;}</style>
    <linearGradient
       id="spacelord_zu_süßigkeit"
       x1="116.17"
       y1="524.32001"
       x2="116.17"
       y2="474.29001"
       gradientUnits="userSpaceOnUse">
      <stop
         offset="0"
         stop-color="#0bff09"
         id="stop4" />
      <stop
         offset="0.06"
         stop-color="#10eb11"
         id="stop6" />
      <stop
         offset="0.33"
         stop-color="#269930"
         id="stop8" />
      <stop
         offset="0.57"
         stop-color="#385749"
         id="stop10" />
      <stop
         offset="0.76"
         stop-color="#44285b"
         id="stop12" />
      <stop
         offset="0.91"
         stop-color="#4c0b66"
         id="stop14" />
      <stop
         offset="1"
         stop-color="#4f006a"
         id="stop16" />
    </linearGradient>
    <linearGradient
       id="spacelord_zu_süßigkeit-2"
       x1="884.53003"
       y1="524.35999"
       x2="884.53003"
       y2="474.26001"
       xlink:href="#spacelord_zu_s%C3%BC%C3%9Figkeit" />
    <linearGradient
       inkscape:collect="always"
       xlink:href="#spacelord_zu_s%C3%BC%C3%9Figkeit"
       id="linearGradient1092"
       gradientUnits="userSpaceOnUse"
       x1="116.17"
       y1="524.32001"
       x2="116.17"
       y2="474.29001" />
  </defs>
  <g
     id="g1010"
     transform="translate(-111,-474.25919)">
    <path
       class="cls-1"
       d="m 153.92,474.32 a 13.85,13.85 0 0 1 5.42,1.09 14.16,14.16 0 0 1 4.46,2.95 13.76,13.76 0 0 1 3,4.39 13.33,13.33 0 0 1 1.11,5.41 13,13 0 0 1 -1.11,5.37 14,14 0 0 1 -7.46,7.3 13.67,13.67 0 0 1 -5.42,1.09 h -17.57 v -27.6 z m -17.57,32.8 h 5.29 v 17.2 h -5.29 z m 17.57,-10.39 a 8.83,8.83 0 0 0 3.39,-0.67 8.57,8.57 0 0 0 2.78,-1.83 8.55,8.55 0 0 0 2.54,-6.07 8.45,8.45 0 0 0 -0.68,-3.34 8.77,8.77 0 0 0 -1.86,-2.77 8.18,8.18 0 0 0 -2.78,-1.86 8.65,8.65 0 0 0 -3.39,-0.67 h -12.28 v 17.21 z"
       id="path24" />
    <path
       class="cls-1"
       d="m 207.75,524.32 -15.35,-22.4 h -5.86 v 22.4 h -5.28 v -50 h 17.56 a 13.89,13.89 0 0 1 5.43,1.09 14.27,14.27 0 0 1 4.46,2.95 13.92,13.92 0 0 1 3,4.39 13.33,13.33 0 0 1 1.11,5.41 13,13 0 0 1 -1.11,5.37 14.09,14.09 0 0 1 -3,4.35 13.94,13.94 0 0 1 -4.46,2.95 13.72,13.72 0 0 1 -5.43,1.09 l 15.35,22.4 z m -21.21,-27.59 h 12.28 a 8.83,8.83 0 0 0 3.39,-0.67 8.72,8.72 0 0 0 2.79,-1.83 8.44,8.44 0 0 0 1.85,-2.74 8.52,8.52 0 0 0 0,-6.67 8.91,8.91 0 0 0 -1.85,-2.77 8.32,8.32 0 0 0 -2.79,-1.86 8.65,8.65 0 0 0 -3.39,-0.67 h -12.28 z"
       id="path26" />
    <path
       class="cls-1"
       d="m 242.59,474.32 a 15.86,15.86 0 0 1 6.21,1.23 16.19,16.19 0 0 1 5.1,3.37 15.78,15.78 0 0 1 3.43,5 15.25,15.25 0 0 1 1.25,6.11 v 18.54 a 15.2,15.2 0 0 1 -1.25,6.15 16.13,16.13 0 0 1 -26.06,5 16,16 0 0 1 -3.43,-5 15.2,15.2 0 0 1 -1.25,-6.15 v -18.52 a 15.25,15.25 0 0 1 1.25,-6.11 15.94,15.94 0 0 1 3.43,-5 16.28,16.28 0 0 1 5.07,-3.37 15.8,15.8 0 0 1 6.25,-1.25 z m 10.71,15.73 a 10,10 0 0 0 -0.86,-4.1 10.62,10.62 0 0 0 -2.29,-3.34 10.79,10.79 0 0 0 -3.39,-2.25 10.8,10.8 0 0 0 -8.35,0 10.79,10.79 0 0 0 -3.39,2.25 11,11 0 0 0 -2.29,3.34 10,10 0 0 0 -0.85,4.1 v 18.54 a 10.05,10.05 0 0 0 0.85,4.11 10.58,10.58 0 0 0 5.68,5.58 10.68,10.68 0 0 0 8.35,0 10.94,10.94 0 0 0 3.39,-2.24 10.62,10.62 0 0 0 2.29,-3.34 10.06,10.06 0 0 0 0.86,-4.11 z"
       id="path28" />
    <path
       class="cls-1"
       d="m 294.78,474.32 v 34.27 a 15.2,15.2 0 0 1 -1.25,6.15 16.08,16.08 0 0 1 -14.75,9.58 15.75,15.75 0 0 1 -6.24,-1.23 15.36,15.36 0 0 1 -5,-3.4 l 3.72,-3.65 a 10.8,10.8 0 0 0 7.56,3.09 10.14,10.14 0 0 0 4.15,-0.85 11.06,11.06 0 0 0 5.71,-5.61 9.85,9.85 0 0 0 0.85,-4.08 v -34.27 z"
       id="path30" />
    <path
       class="cls-1"
       d="m 339.75,474.32 v 5.2 h -30.2 v -5.2 z m -30.2,44.81 h 30.2 v 5.19 h -30.2 z m 19.07,-22.4 v 5.19 h -5.29 v -5.19 z"
       id="path32" />
    <path
       class="cls-1"
       d="m 367.6,519.13 a 10.33,10.33 0 0 0 4.17,-0.85 11.11,11.11 0 0 0 3.4,-2.24 10.76,10.76 0 0 0 2.28,-3.34 10.06,10.06 0 0 0 0.86,-4.11 h 5.28 a 15.2,15.2 0 0 1 -1.25,6.15 16.13,16.13 0 0 1 -26.06,5 16,16 0 0 1 -3.43,-5 15.19,15.19 0 0 1 -1.24,-6.15 v -18.54 a 15.24,15.24 0 0 1 1.24,-6.11 15.94,15.94 0 0 1 3.43,-5 16.28,16.28 0 0 1 5.07,-3.37 16.39,16.39 0 0 1 12.46,0 16.19,16.19 0 0 1 5.1,3.37 15.78,15.78 0 0 1 3.43,5 15.25,15.25 0 0 1 1.25,6.11 h -5.28 a 10,10 0 0 0 -0.86,-4.1 10.76,10.76 0 0 0 -2.28,-3.34 11,11 0 0 0 -3.4,-2.25 10.8,10.8 0 0 0 -8.35,0 10.79,10.79 0 0 0 -3.39,2.25 11,11 0 0 0 -2.29,3.34 10,10 0 0 0 -0.85,4.1 v 18.54 a 10.05,10.05 0 0 0 0.85,4.11 10.58,10.58 0 0 0 5.68,5.58 10.35,10.35 0 0 0 4.18,0.85 z"
       id="path34" />
    <path
       class="cls-1"
       d="m 427.43,479.52 h -14.78 v 44.8 h -5.29 v -44.8 h -14.77 v -5.2 h 34.84 z"
       id="path36" />
    <path
       class="cls-1"
       d="m 453.91,501.92 h -19.42 v -5.19 h 19.42 z"
       id="path38" />
    <path
       class="cls-1"
       d="m 504.32,522.71 v 1.61 H 499 L 472.12,485 v 39.32 h -5.29 v -50 h 4.36 z M 499,479.52 h 5.29 v -5.2 H 499 Z"
       id="path40" />
    <path
       class="cls-1"
       d="m 552.86,524.32 h -5.49 l -13.78,-41.71 -13.78,41.71 h -5.57 l 16.49,-50 h 5.64 z"
       id="path42" />
    <path
       class="cls-1"
       d="m 606.19,474.32 v 50 h -5.28 v -38.48 l -14.06,30.62 h -4.64 l -19.56,-42.14 h 5.56 l 16.42,35.47 16.14,-35.47 z m -43.54,44.81 h 5.28 v 5.19 h -5.28 z"
       id="path44" />
    <path
       class="cls-1"
       d="m 651.74,474.32 v 5.2 h -30.2 v -5.2 z m -30.2,44.81 h 30.2 v 5.19 h -30.2 z m 19.06,-22.4 v 5.19 h -5.28 v -5.19 z"
       id="path46" />
    <path
       class="cls-1"
       d="m 681.3,501.92 h -19.42 v -5.19 h 19.42 z"
       id="path48" />
    <path
       class="cls-1"
       d="m 700.29,496.87 h 13.56 v 5.19 h -13.56 v 22.26 H 695 v -50 h 5.28 z m 28,-22.55 v 50 H 723 v -50 z"
       id="path50" />
    <path
       class="cls-1"
       d="m 774.68,474.32 v 5.2 h -30.2 v -5.2 z m -30.2,44.81 h 30.2 v 5.19 h -30.2 z m 19.07,-22.4 v 5.19 h -5.29 v -5.19 z"
       id="path52" />
    <path
       class="cls-1"
       d="m 814.52,524.32 -15.35,-22.4 h -5.85 v 22.4 H 788 v -50 h 17.6 a 13.85,13.85 0 0 1 5.42,1.09 14.16,14.16 0 0 1 4.46,2.95 13.6,13.6 0 0 1 3,4.39 13.33,13.33 0 0 1 1.11,5.41 13,13 0 0 1 -1.11,5.37 14.11,14.11 0 0 1 -12.88,8.39 l 15.4,22.4 z m -21.2,-27.59 h 12.28 a 8.83,8.83 0 0 0 3.39,-0.67 8.57,8.57 0 0 0 2.78,-1.83 8.55,8.55 0 0 0 2.54,-6.07 8.45,8.45 0 0 0 -0.68,-3.34 8.77,8.77 0 0 0 -1.86,-2.77 8.18,8.18 0 0 0 -2.78,-1.86 8.65,8.65 0 0 0 -3.39,-0.67 h -12.28 z"
       id="path54" />
    <path
       class="cls-1"
       d="m 864.35,474.32 v 5.2 h -30.2 v -5.2 z m -30.2,44.81 h 30.2 v 5.19 h -30.2 z m 19.07,-22.4 v 5.19 h -5.29 v -5.19 z"
       id="path56" />
    <path
       class="cls-2"
       d="m 111,524.32 v -50 h 8 a 2.29,2.29 0 0 1 2.38,2.39 2.46,2.46 0 0 1 -0.67,1.75 2.23,2.23 0 0 1 -1.71,0.7 h -3 v 40.28 h 3 a 2.21,2.21 0 0 1 1.71,0.71 2.42,2.42 0 0 1 0.67,1.75 2.48,2.48 0 0 1 -0.67,1.71 2.2,2.2 0 0 1 -1.71,0.74 z"
       id="path58"
       style="fill:url(#linearGradient1092)" />
    <path
       class="cls-3"
       d="m 889.71,474.26 v 50.1 h -8 a 2.33,2.33 0 0 1 -1.72,-0.68 2.28,2.28 0 0 1 -0.67,-1.71 2.42,2.42 0 0 1 0.67,-1.75 2.28,2.28 0 0 1 1.72,-0.71 h 3 v -40.33 h -3 a 2.28,2.28 0 0 1 -1.72,-0.71 2.44,2.44 0 0 1 -0.67,-1.75 2.49,2.49 0 0 1 0.68,-1.72 2.23,2.23 0 0 1 1.72,-0.74 z"
       id="path60"
       style="fill:url(#spacelord_zu_s%C3%BC%C3%9Figkeit-2)" />
    <path
       class="cls-4"
       d="m 220.38,534.12 -6.59,15.74 h -1.57 l 6.55,-15.74 z"
       id="path62" />
    <path
       class="cls-4"
       d="M 233.58,534.12 227,549.86 h -1.58 L 232,534.12 Z"
       id="path64" />
    <path
       class="cls-4"
       d="M 261.68,535.84 H 257 v 13.73 h -1.75 v -13.73 h -4.69 v -1.43 h 11.11 z"
       id="path66" />
    <path
       class="cls-4"
       d="M 273.65,549.57 H 272 v -7.18 a 3.78,3.78 0 0 0 -0.47,-2.16 1.72,1.72 0 0 0 -1.5,-0.68 c -1,0 -2.12,0.64 -3.3,1.92 v 8.1 H 265 v -15.16 h 1.68 V 540 a 5.23,5.23 0 0 1 3.8,-1.92 q 3.15,0 3.15,3.81 z"
       id="path68" />
    <path
       class="cls-4"
       d="m 287.19,544 h -7.69 a 4.51,4.51 0 0 0 1.11,3.14 3.48,3.48 0 0 0 2.7,1.24 10.05,10.05 0 0 0 3.15,-0.55 l 0.29,1.34 a 8.47,8.47 0 0 1 -3.46,0.67 5.32,5.32 0 0 1 -4,-1.6 6,6 0 0 1 -1.53,-4.32 6.29,6.29 0 0 1 1.37,-4.25 4.48,4.48 0 0 1 3.54,-1.59 4.14,4.14 0 0 1 3.24,1.48 5.72,5.72 0 0 1 1.3,3.92 z m -1.83,-1.36 a 3.15,3.15 0 0 0 -0.82,-2.21 2.41,2.41 0 0 0 -1.82,-0.9 2.93,2.93 0 0 0 -2.16,0.86 3.46,3.46 0 0 0 -0.95,2.25 z"
       id="path70" />
    <path
       class="cls-4"
       d="m 308.92,538.1 a 4.55,4.55 0 0 1 3.67,1.62 6.32,6.32 0 0 1 1.41,4.28 6.4,6.4 0 0 1 -1.37,4.27 5,5 0 0 1 -7.35,0 6.41,6.41 0 0 1 -1.36,-4.28 6.34,6.34 0 0 1 1.36,-4.25 4.59,4.59 0 0 1 3.64,-1.64 z m 0,10.3 a 2.75,2.75 0 0 0 2.4,-1.29 6.13,6.13 0 0 0 0,-6.31 3,3 0 0 0 -4.83,0 6.22,6.22 0 0 0 0,6.33 2.76,2.76 0 0 0 2.43,1.27 z"
       id="path72" />
    <path
       class="cls-4"
       d="m 326.46,549.57 h -1.68 v -7.18 a 3.77,3.77 0 0 0 -0.48,-2.16 1.69,1.69 0 0 0 -1.49,-0.68 4.79,4.79 0 0 0 -3.3,1.92 v 8.1 h -1.68 v -11.2 h 1.68 V 540 a 5.23,5.23 0 0 1 3.8,-1.92 q 3.15,0 3.15,3.81 z"
       id="path74" />
    <path
       class="cls-4"
       d="m 338.84,549.57 h -4.57 v -13.71 h -2.92 v -1.45 h 4.59 v 13.71 h 2.9 z"
       id="path76" />
    <path
       class="cls-4"
       d="m 353.37,538.37 -4.25,11.2 a 10.67,10.67 0 0 1 -1.83,3.44 2.71,2.71 0 0 1 -2.06,1 5.88,5.88 0 0 1 -2.05,-0.37 l 0.28,-1.35 a 4.75,4.75 0 0 0 1.46,0.26 1.84,1.84 0 0 0 1.49,-0.7 8.47,8.47 0 0 0 1.17,-2.29 l -4.2,-11.17 h 1.82 l 3.17,8.93 3.17,-8.93 z"
       id="path78" />
    <path
       class="cls-4"
       d="m 379.29,549.57 h -1.76 v -7.52 h -5.19 v 7.52 h -1.76 v -15.16 h 1.76 v 6.09 h 5.19 v -6.09 h 1.76 z"
       id="path80" />
    <path
       class="cls-4"
       d="m 392.75,549.57 h -1.67 a 6.75,6.75 0 0 1 -0.2,-1.81 4.47,4.47 0 0 1 -3.89,2.1 3.15,3.15 0 0 1 -2.2,-0.89 3,3 0 0 1 -1,-2.28 3.11,3.11 0 0 1 0.34,-1.46 2.83,2.83 0 0 1 1,-1.07 5.4,5.4 0 0 1 1.57,-0.69 12.25,12.25 0 0 1 2.19,-0.35 l 1.88,-0.15 v -0.54 c 0,-1.92 -0.89,-2.88 -2.68,-2.88 a 6.39,6.39 0 0 0 -1.61,0.28 8.2,8.2 0 0 0 -1.67,0.65 l -0.44,-1.2 a 9.45,9.45 0 0 1 4.26,-1.18 q 3.83,0 3.82,4 v 4.9 a 10.79,10.79 0 0 0 0.3,2.57 z m -2,-3.32 v -2 a 29.89,29.89 0 0 0 -3.11,0.38 3.55,3.55 0 0 0 -1.46,0.66 1.57,1.57 0 0 0 -0.61,1.31 1.52,1.52 0 0 0 0.52,1.21 2,2 0 0 0 1.34,0.47 3.38,3.38 0 0 0 1.78,-0.54 5.19,5.19 0 0 0 1.58,-1.49 z"
       id="path82" />
    <path
       class="cls-4"
       d="m 405.63,549.19 a 7.72,7.72 0 0 1 -3.21,0.67 5.65,5.65 0 0 1 -4.22,-1.61 6.58,6.58 0 0 1 0,-8.54 5.61,5.61 0 0 1 4.16,-1.61 8.73,8.73 0 0 1 3.22,0.6 l -0.44,1.38 a 8.61,8.61 0 0 0 -2.75,-0.53 3.73,3.73 0 0 0 -2.93,1.2 4.62,4.62 0 0 0 -1.08,3.23 4.56,4.56 0 0 0 1.12,3.14 3.68,3.68 0 0 0 2.91,1.28 8.64,8.64 0 0 0 2.92,-0.55 z"
       id="path84" />
    <path
       class="cls-4"
       d="m 420,549.57 h -2.2 L 413,544 l -1.1,1 v 4.62 h -1.67 v -15.21 h 1.67 v 8.69 l 5.26,-4.73 h 2.13 l -5.1,4.58 z"
       id="path86" />
    <path
       class="cls-4"
       d="m 432.41,544 h -7.68 a 4.55,4.55 0 0 0 1.1,3.14 3.48,3.48 0 0 0 2.7,1.24 10,10 0 0 0 3.15,-0.55 l 0.29,1.34 a 8.44,8.44 0 0 1 -3.46,0.67 5.33,5.33 0 0 1 -4,-1.6 6,6 0 0 1 -1.52,-4.32 6.24,6.24 0 0 1 1.37,-4.25 4.45,4.45 0 0 1 3.54,-1.59 4.12,4.12 0 0 1 3.23,1.48 5.67,5.67 0 0 1 1.3,3.92 z m -1.83,-1.36 a 3.19,3.19 0 0 0 -0.81,-2.21 2.45,2.45 0 0 0 -1.83,-0.9 2.91,2.91 0 0 0 -2.15,0.86 3.41,3.41 0 0 0 -1,2.25 z"
       id="path88" />
    <path
       class="cls-4"
       d="m 445.45,538.67 -0.68,1.62 a 4.76,4.76 0 0 0 -1.91,-0.49 2.74,2.74 0 0 0 -1.45,0.43 4.46,4.46 0 0 0 -1.3,1.21 4.25,4.25 0 0 0 -0.6,0.89 v 7.24 h -1.67 v -11.2 h 1.67 v 2.27 q 1.35,-2.53 3.48,-2.54 a 5.64,5.64 0 0 1 2.46,0.57 z"
       id="path90" />
    <path
       class="cls-4"
       d="m 457.31,540 a 8.75,8.75 0 0 0 -2.65,-0.46 4.28,4.28 0 0 0 -2.16,0.46 1.37,1.37 0 0 0 -0.8,1.22 1.12,1.12 0 0 0 0.37,0.84 3.61,3.61 0 0 0 1.46,0.67 l 1.6,0.46 a 7,7 0 0 1 1.8,0.75 3,3 0 0 1 0.06,5 5.89,5.89 0 0 1 -3.42,0.93 8,8 0 0 1 -3.4,-0.63 l 0.32,-1.45 a 6.88,6.88 0 0 0 3,0.67 4.36,4.36 0 0 0 2.27,-0.52 1.57,1.57 0 0 0 0.87,-1.38 1.47,1.47 0 0 0 -0.43,-1 5.32,5.32 0 0 0 -2.05,-1 c -0.86,-0.26 -1.5,-0.46 -1.91,-0.6 a 3.84,3.84 0 0 1 -1.14,-0.58 2.5,2.5 0 0 1 -1.07,-2.13 2.64,2.64 0 0 1 1.27,-2.3 6,6 0 0 1 3.36,-0.85 11.3,11.3 0 0 1 3,0.47 z"
       id="path92" />
    <path
       class="cls-4"
       d="m 464.73,539.82 a 4,4 0 0 1 1.51,-1.24 4.41,4.41 0 0 1 2,-0.48 3.5,3.5 0 0 1 3,1.6 7.19,7.19 0 0 1 1.1,4.15 7.5,7.5 0 0 1 -1.15,4.29 3.57,3.57 0 0 1 -3.11,1.72 3.9,3.9 0 0 1 -1.95,-0.52 4,4 0 0 1 -1.44,-1.38 v 6 h -1.67 v -15.59 h 1.67 z m 0,1.67 v 4.65 a 4.6,4.6 0 0 0 1.28,1.58 2.68,2.68 0 0 0 1.67,0.63 2.43,2.43 0 0 0 2.15,-1.27 5.79,5.79 0 0 0 0.8,-3.14 5.89,5.89 0 0 0 -0.76,-3.16 2.39,2.39 0 0 0 -2.13,-1.23 3.57,3.57 0 0 0 -3.01,1.94 z"
       id="path94" />
    <path
       class="cls-4"
       d="m 485.16,549.57 h -1.66 a 6.32,6.32 0 0 1 -0.21,-1.81 4.45,4.45 0 0 1 -3.88,2.1 3.13,3.13 0 0 1 -2.2,-0.89 3,3 0 0 1 -0.95,-2.28 3.11,3.11 0 0 1 0.33,-1.46 2.86,2.86 0 0 1 1,-1.07 5.28,5.28 0 0 1 1.57,-0.69 12,12 0 0 1 2.19,-0.35 l 1.88,-0.15 v -0.54 c 0,-1.92 -0.9,-2.88 -2.69,-2.88 a 6.32,6.32 0 0 0 -1.6,0.28 8,8 0 0 0 -1.67,0.65 l -0.44,-1.2 a 9.41,9.41 0 0 1 4.25,-1.18 q 3.82,0 3.82,4 v 4.9 a 11.32,11.32 0 0 0 0.26,2.57 z m -2,-3.32 v -2 a 29.51,29.51 0 0 0 -3.11,0.38 3.55,3.55 0 0 0 -1.46,0.66 1.58,1.58 0 0 0 -0.62,1.31 1.53,1.53 0 0 0 0.53,1.21 2,2 0 0 0 1.34,0.47 3.35,3.35 0 0 0 1.77,-0.54 5.22,5.22 0 0 0 1.6,-1.49 z"
       id="path96" />
    <path
       class="cls-4"
       d="m 498,549.19 a 7.68,7.68 0 0 1 -3.21,0.67 5.63,5.63 0 0 1 -4.21,-1.61 6.54,6.54 0 0 1 0,-8.54 5.57,5.57 0 0 1 4.16,-1.61 8.71,8.71 0 0 1 3.21,0.6 l -0.44,1.38 a 8.56,8.56 0 0 0 -2.75,-0.53 3.75,3.75 0 0 0 -2.93,1.2 5.16,5.16 0 0 0 0,6.37 3.71,3.71 0 0 0 2.91,1.28 8.6,8.6 0 0 0 2.92,-0.55 z"
       id="path98" />
    <path
       class="cls-4"
       d="m 511.62,544 h -7.68 a 4.55,4.55 0 0 0 1.1,3.14 3.51,3.51 0 0 0 2.7,1.24 10,10 0 0 0 3.15,-0.55 l 0.29,1.34 a 8.44,8.44 0 0 1 -3.46,0.67 5.29,5.29 0 0 1 -4,-1.6 6,6 0 0 1 -1.53,-4.32 6.29,6.29 0 0 1 1.37,-4.25 4.45,4.45 0 0 1 3.54,-1.59 4.1,4.1 0 0 1 3.23,1.48 5.67,5.67 0 0 1 1.3,3.92 z m -1.82,-1.36 a 3.2,3.2 0 0 0 -0.82,-2.21 2.42,2.42 0 0 0 -1.83,-0.9 2.92,2.92 0 0 0 -2.15,0.86 3.41,3.41 0 0 0 -0.95,2.25 z"
       id="path100" />
    <path
       class="cls-4"
       d="m 539,538.37 -1.61,11.2 h -1.28 l -2.63,-6.34 -2.64,6.34 h -1.28 L 528,538.37 h 1.67 q 0.89,7.85 0.92,8.23 l 2,-4.86 h 1.72 l 2,4.83 0.91,-8.2 z"
       id="path102" />
    <path
       class="cls-4"
       d="m 548.1,549.57 h -1.67 v -9.75 h -3.3 v -1.45 h 5 z m -0.81,-15.43 a 1.07,1.07 0 0 1 0.8,0.34 1.2,1.2 0 0 1 0,1.64 1.1,1.1 0 0 1 -0.81,0.33 1,1 0 0 1 -0.78,-0.35 1.13,1.13 0 0 1 0,-1.62 1,1 0 0 1 0.79,-0.34 z"
       id="path104" />
    <path
       class="cls-4"
       d="m 564.21,549.06 a 7.9,7.9 0 0 1 -3.32,0.77 q -3,0 -3,-3.16 v -6.85 h -2.15 v -1.45 h 2.15 v -3.06 h 1.63 v 3.06 h 3.8 v 1.45 h -3.8 v 6.41 a 2.48,2.48 0 0 0 0.45,1.58 1.47,1.47 0 0 0 1.23,0.56 6.51,6.51 0 0 0 2.72,-0.61 z"
       id="path106" />
    <path
       class="cls-4"
       d="m 577.3,549.57 h -1.68 v -7.18 a 3.86,3.86 0 0 0 -0.47,-2.16 1.72,1.72 0 0 0 -1.5,-0.68 4.79,4.79 0 0 0 -3.3,1.92 v 8.1 h -1.68 v -15.16 h 1.68 V 540 a 5.23,5.23 0 0 1 3.8,-1.92 q 3.15,0 3.15,3.81 z"
       id="path108" />
    <path
       class="cls-4"
       d="m 604,549.57 h -1.66 a 6.32,6.32 0 0 1 -0.21,-1.81 4.45,4.45 0 0 1 -3.88,2.1 3.12,3.12 0 0 1 -2.25,-0.86 3,3 0 0 1 -0.95,-2.28 3.11,3.11 0 0 1 0.33,-1.46 2.86,2.86 0 0 1 1,-1.07 5.28,5.28 0 0 1 1.57,-0.69 12,12 0 0 1 2.19,-0.35 L 602,543 v -0.54 c 0,-1.92 -0.9,-2.88 -2.69,-2.88 a 6.25,6.25 0 0 0 -1.6,0.28 8,8 0 0 0 -1.67,0.65 l -0.44,-1.2 a 9.41,9.41 0 0 1 4.25,-1.18 q 3.82,0 3.82,4 V 547 a 11.32,11.32 0 0 0 0.33,2.57 z m -2,-3.32 v -2 a 29.51,29.51 0 0 0 -3.11,0.38 3.55,3.55 0 0 0 -1.46,0.66 1.58,1.58 0 0 0 -0.62,1.31 1.53,1.53 0 0 0 0.53,1.21 2,2 0 0 0 1.34,0.47 3.37,3.37 0 0 0 1.77,-0.54 5.22,5.22 0 0 0 1.55,-1.49 z"
       id="path110" />
    <path
       class="cls-4"
       d="m 630.61,538.37 -4.24,11.2 h -1.53 l -4.22,-11.2 h 1.83 l 3.17,8.91 3.17,-8.91 z"
       id="path112" />
    <path
       class="cls-4"
       d="m 643.59,549.57 h -1.67 a 6.75,6.75 0 0 1 -0.2,-1.81 4.47,4.47 0 0 1 -3.89,2.1 3.15,3.15 0 0 1 -2.2,-0.89 3,3 0 0 1 -1,-2.28 3.11,3.11 0 0 1 0.34,-1.46 2.86,2.86 0 0 1 1,-1.07 5.22,5.22 0 0 1 1.56,-0.69 12.25,12.25 0 0 1 2.19,-0.35 l 1.88,-0.15 v -0.54 c 0,-1.92 -0.89,-2.88 -2.68,-2.88 a 6.39,6.39 0 0 0 -1.61,0.28 8.43,8.43 0 0 0 -1.67,0.65 l -0.44,-1.2 a 9.48,9.48 0 0 1 4.26,-1.18 q 3.82,0 3.82,4 v 4.9 a 10.79,10.79 0 0 0 0.31,2.57 z m -2,-3.32 v -2 a 29.21,29.21 0 0 0 -3.1,0.38 3.59,3.59 0 0 0 -1.47,0.66 1.57,1.57 0 0 0 -0.61,1.31 1.52,1.52 0 0 0 0.52,1.21 2,2 0 0 0 1.35,0.47 3.37,3.37 0 0 0 1.77,-0.54 5.19,5.19 0 0 0 1.58,-1.49 z"
       id="path114" />
    <path
       class="cls-4"
       d="m 656.68,538.67 -0.67,1.62 a 4.84,4.84 0 0 0 -1.91,-0.49 2.71,2.71 0 0 0 -1.45,0.43 4.49,4.49 0 0 0 -1.31,1.21 4.25,4.25 0 0 0 -0.6,0.89 v 7.24 h -1.66 v -11.2 h 1.66 v 2.27 q 1.35,-2.53 3.48,-2.54 a 5.61,5.61 0 0 1 2.46,0.57 z"
       id="path116" />
    <path
       class="cls-4"
       d="m 666.92,549.57 h -1.67 v -9.75 H 662 v -1.45 h 5 z m -0.81,-15.43 a 1.07,1.07 0 0 1 0.8,0.34 1.12,1.12 0 0 1 0.33,0.81 1.16,1.16 0 0 1 -0.32,0.83 1.1,1.1 0 0 1 -0.81,0.33 1,1 0 0 1 -0.78,-0.35 1.13,1.13 0 0 1 0,-1.62 1,1 0 0 1 0.78,-0.34 z"
       id="path118" />
    <path
       class="cls-4"
       d="m 683.2,549.57 h -1.67 a 6.75,6.75 0 0 1 -0.2,-1.81 4.47,4.47 0 0 1 -3.89,2.1 3.15,3.15 0 0 1 -2.2,-0.89 3,3 0 0 1 -1,-2.28 3.11,3.11 0 0 1 0.33,-1.46 2.94,2.94 0 0 1 1,-1.07 5.28,5.28 0 0 1 1.57,-0.69 12.25,12.25 0 0 1 2.19,-0.35 l 1.88,-0.15 v -0.54 c 0,-1.92 -0.89,-2.88 -2.68,-2.88 a 6.32,6.32 0 0 0 -1.61,0.28 8.2,8.2 0 0 0 -1.67,0.65 l -0.44,-1.2 a 9.41,9.41 0 0 1 4.25,-1.18 q 3.82,0 3.83,4 v 4.9 a 10.79,10.79 0 0 0 0.31,2.57 z m -2,-3.32 v -2 a 29.51,29.51 0 0 0 -3.11,0.38 3.55,3.55 0 0 0 -1.46,0.66 1.58,1.58 0 0 0 -0.62,1.31 1.53,1.53 0 0 0 0.53,1.21 2,2 0 0 0 1.34,0.47 3.32,3.32 0 0 0 1.77,-0.54 5.1,5.1 0 0 0 1.59,-1.49 z"
       id="path120" />
    <path
       class="cls-4"
       d="m 689.17,539.82 a 4,4 0 0 1 1.51,-1.24 4.37,4.37 0 0 1 2,-0.48 3.52,3.52 0 0 1 3.05,1.57 7.15,7.15 0 0 1 1.09,4.13 7.65,7.65 0 0 1 -1.16,4.32 3.58,3.58 0 0 1 -3.11,1.74 4,4 0 0 1 -1.95,-0.52 4,4 0 0 1 -1.43,-1.38 v 1.61 h -1.68 v -15.16 h 1.68 z m 0,1.67 v 4.65 a 4.49,4.49 0 0 0 1.28,1.58 2.65,2.65 0 0 0 1.66,0.63 2.46,2.46 0 0 0 2.16,-1.29 5.92,5.92 0 0 0 0.8,-3.17 5.76,5.76 0 0 0 -0.77,-3.13 2.39,2.39 0 0 0 -2.12,-1.21 3.56,3.56 0 0 0 -3.01,1.94 z"
       id="path122" />
    <path
       class="cls-4"
       d="m 708.5,549.57 h -4.57 V 535.86 H 701 v -1.45 h 4.59 v 13.71 h 2.9 z"
       id="path124" />
    <path
       class="cls-4"
       d="m 722.86,544 h -7.68 a 4.51,4.51 0 0 0 1.1,3.14 3.48,3.48 0 0 0 2.7,1.24 10,10 0 0 0 3.15,-0.55 l 0.29,1.34 a 8.47,8.47 0 0 1 -3.46,0.67 5.33,5.33 0 0 1 -4,-1.6 6,6 0 0 1 -1.53,-4.32 6.29,6.29 0 0 1 1.37,-4.25 4.48,4.48 0 0 1 3.54,-1.59 4.14,4.14 0 0 1 3.24,1.48 5.72,5.72 0 0 1 1.3,3.92 z M 721,542.66 a 3.15,3.15 0 0 0 -0.82,-2.21 2.41,2.41 0 0 0 -1.82,-0.9 2.93,2.93 0 0 0 -2.16,0.86 3.46,3.46 0 0 0 -1,2.25 z"
       id="path126" />
    <path
       class="cls-4"
       d="m 748.93,549.57 h -1.68 v -7.18 a 3.77,3.77 0 0 0 -0.48,-2.16 1.69,1.69 0 0 0 -1.49,-0.68 4.79,4.79 0 0 0 -3.3,1.92 v 8.1 h -1.68 v -11.2 H 742 V 540 a 5.23,5.23 0 0 1 3.8,-1.92 q 3.15,0 3.15,3.81 z"
       id="path128" />
    <path
       class="cls-4"
       d="m 762.41,549.57 h -1.67 a 6.75,6.75 0 0 1 -0.2,-1.81 4.47,4.47 0 0 1 -3.89,2.1 3.15,3.15 0 0 1 -2.2,-0.89 3,3 0 0 1 -1,-2.28 3.11,3.11 0 0 1 0.34,-1.46 2.83,2.83 0 0 1 1,-1.07 5.4,5.4 0 0 1 1.57,-0.69 12.25,12.25 0 0 1 2.19,-0.35 l 1.88,-0.15 v -0.54 c 0,-1.92 -0.89,-2.88 -2.68,-2.88 a 6.39,6.39 0 0 0 -1.61,0.28 8.2,8.2 0 0 0 -1.67,0.65 l -0.44,-1.2 a 9.48,9.48 0 0 1 4.26,-1.18 q 3.83,0 3.82,4 v 4.9 a 10.79,10.79 0 0 0 0.3,2.57 z m -2,-3.32 v -2 a 29.89,29.89 0 0 0 -3.11,0.38 3.55,3.55 0 0 0 -1.46,0.66 1.57,1.57 0 0 0 -0.61,1.31 1.52,1.52 0 0 0 0.52,1.21 2,2 0 0 0 1.34,0.47 3.38,3.38 0 0 0 1.78,-0.54 5.19,5.19 0 0 0 1.58,-1.49 z"
       id="path130" />
    <path
       class="cls-4"
       d="m 776.21,549.57 h -1.67 v -7.35 q 0,-2.67 -1,-2.67 c -0.34,0 -0.71,0.31 -1.11,0.92 a 5.53,5.53 0 0 0 -0.61,1 v 8.08 h -1.66 v -7.35 c 0,-1.78 -0.34,-2.67 -1,-2.67 -0.33,0 -0.7,0.31 -1.11,0.92 a 5.8,5.8 0 0 0 -0.6,1 v 8.08 h -1.68 v -11.2 h 1.61 v 1.69 a 4.43,4.43 0 0 1 1.13,-1.42 2,2 0 0 1 1.29,-0.54 1.65,1.65 0 0 1 1.21,0.54 2.81,2.81 0 0 1 0.75,1.42 4.41,4.41 0 0 1 1.12,-1.42 2.06,2.06 0 0 1 1.29,-0.54 c 1.36,0 2,1.21 2,3.64 z"
       id="path132" />
    <path
       class="cls-4"
       d="m 788.87,544 h -7.68 a 4.51,4.51 0 0 0 1.1,3.14 3.48,3.48 0 0 0 2.7,1.24 10,10 0 0 0 3.15,-0.55 l 0.29,1.34 a 8.44,8.44 0 0 1 -3.46,0.67 5.33,5.33 0 0 1 -4,-1.6 6,6 0 0 1 -1.53,-4.32 6.29,6.29 0 0 1 1.37,-4.25 4.48,4.48 0 0 1 3.54,-1.59 4.14,4.14 0 0 1 3.24,1.48 5.72,5.72 0 0 1 1.3,3.92 z M 787,542.66 a 3.15,3.15 0 0 0 -0.82,-2.21 2.41,2.41 0 0 0 -1.82,-0.9 2.89,2.89 0 0 0 -2.15,0.86 3.42,3.42 0 0 0 -1,2.25 z"
       id="path134" />
  </g>
</svg>
